<?xml version="1.0" encoding="utf-8"?>
<!-- Generator: Adobe Illustrator 18.0.0, SVG Export Plug-In . SVG Version: 6.00 Build 0)  -->
<!DOCTYPE svg PUBLIC "-//W3C//DTD SVG 1.1//EN" "http://www.w3.org/Graphics/SVG/1.1/DTD/svg11.dtd">
<svg version="1.1" id="Layer_1" xmlns="http://www.w3.org/2000/svg" xmlns:xlink="http://www.w3.org/1999/xlink" x="0px" y="0px"
	 viewBox="0 0 256 256" enable-background="new 0 0 256 256" xml:space="preserve">
<rect x="-23.6" y="-35.1" fill="#333333" width="327.4" height="310.2"/>
<g>
	<path fill="#58BECC" d="M66.2,122.1L37.3,151c-4.7,4.7-12.4,4.7-17.1,0l0,0c-4.7-4.7-4.7-12.4,0-17L49.1,105
		c4.7-4.7,12.4-4.7,17.1,0l0,0C70.8,109.7,70.8,117.4,66.2,122.1z"/>
	<path fill="#FFFFFF" d="M78,150.9l-28.9-28.9c-4.7-4.7-4.7-12.4,0-17.1l0,0c4.7-4.7,12.4-4.7,17,0l28.9,28.9
		c4.7,4.7,4.7,12.4,0,17.1l0,0C90.4,155.6,82.7,155.6,78,150.9z"/>
	<g>
		<path fill="#FFFFFF" d="M130.9,129.3c1.6,2,2.5,4.6,2.5,7.6c0,4-1.3,7.4-4,10c-2.7,2.7-6.1,4-10.1,4c-3.8,0-7-1.1-9.5-3.4
			c-1.7-1.5-2.9-3.5-3.7-5.9h0c-0.1-0.3-0.2-0.7-0.2-1.1c0-0.5,0.1-0.9,0.3-1.3c0.2-0.4,0.4-0.8,0.7-1.1c0.3-0.3,0.7-0.5,1.1-0.7
			c0.4-0.2,0.8-0.3,1.3-0.3c0.8,0,1.5,0.2,2.1,0.7c0.6,0.5,1,1.1,1.2,1.8c0.3,1,0.6,1.7,1,2.2c1.4,1.9,3.4,2.9,6,2.9
			c2.1,0,3.8-0.7,5.2-2.1c1.4-1.4,2.1-3.1,2.1-5.3c0-0.8-0.1-1.6-0.3-2.3c-0.1-0.4-0.3-0.7-0.5-1c-0.2-0.3-0.4-0.6-0.7-0.9
			c-0.3-0.3-0.6-0.6-0.9-0.9c-0.3-0.3-0.7-0.5-1.1-0.8c-0.4-0.3-0.8-0.5-1.3-0.8c-0.5-0.2-1-0.5-1.5-0.7l-4.2-1.8
			c-6-2.5-9-6.3-9-11.2c0-3.3,1.3-6,3.8-8.3c2.5-2.2,5.7-3.4,9.4-3.4c3.7,0,6.8,1.3,9.4,4c0.4,0.3,0.6,0.7,0.9,1.1
			c0.2,0.4,0.3,0.9,0.3,1.4c0,0.4-0.1,0.8-0.2,1.2c-0.2,0.4-0.4,0.7-0.7,1c-0.3,0.3-0.6,0.5-1,0.7c-0.4,0.2-0.8,0.2-1.2,0.2
			c-0.5,0-1-0.1-1.4-0.3c-0.4-0.2-0.8-0.5-1.1-0.9c-0.2-0.3-0.5-0.5-0.7-0.7c-0.2-0.2-0.4-0.4-0.7-0.5c-1-0.6-2.2-0.9-3.6-0.9
			c-1.9,0-3.4,0.5-4.6,1.6c-1.2,1-1.8,2.3-1.8,3.9c0,2.1,1.6,3.9,4.8,5.2l4.4,1.8C126.6,125.5,129.2,127.3,130.9,129.3z"/>
		<path fill="#FFFFFF" d="M163,144.7c0.2,0.3,0.4,0.6,0.6,1c0.1,0.4,0.2,0.8,0.2,1.2c0,0.5-0.1,0.9-0.3,1.3c-0.2,0.4-0.4,0.7-0.7,1
			c-0.3,0.3-0.7,0.5-1.1,0.7c-0.4,0.2-0.8,0.3-1.3,0.3c-0.6,0-1.1-0.1-1.6-0.4c-0.5-0.3-0.9-0.7-1.2-1.2l-11-15.7
			c0-0.1-0.2-0.2-0.4-0.4c-0.2-0.2-0.5-0.3-0.7-0.3c-0.2,0-0.3,0.1-0.4,0.2c-0.1,0.2-0.2,0.5-0.2,1v13.3v0.2v0.1v0.1
			c0,0.4-0.1,0.8-0.3,1.2c-0.2,0.4-0.4,0.7-0.7,1c-0.3,0.3-0.6,0.5-1,0.7c-0.4,0.2-0.8,0.2-1.3,0.2c-0.5,0-0.9-0.1-1.3-0.3
			c-0.4-0.2-0.7-0.4-1-0.7c-0.3-0.3-0.5-0.6-0.7-1c-0.2-0.4-0.3-0.8-0.3-1.3v-0.1v-39.2c0-0.5,0.2-0.8,0.5-1.2
			c0.3-0.3,0.7-0.5,1.1-0.5h6.2c5.8,0,10.1,1.1,12.7,3.3c2.9,2.5,4.3,5.7,4.3,9.6c0,3.1-0.9,5.8-2.7,8.1c-1.4,1.8-3.3,3.1-5.5,3.9
			c-0.2,0.1-0.4,0.1-0.5,0.2c-0.1,0.1-0.2,0.1-0.3,0.2c-0.1,0.1-0.2,0.1-0.2,0.1c-0.1,0.2-0.1,0.4,0,0.7L163,144.7z M147.1,126.3
			c6.3,0,9.4-2.4,9.4-7.2c0-4.5-3.1-6.8-9.2-6.8h-0.8c-0.4,0-0.8,0.2-1.1,0.5c-0.3,0.3-0.5,0.7-0.5,1.1v10.9c0,0.4,0.2,0.8,0.5,1.1
			c0.3,0.3,0.6,0.4,1.1,0.5H147.1z"/>
		<path fill="#FFFFFF" d="M201.2,110.6l-0.1,0.2l-15.3,36.5c-0.2,0.5-0.5,1-0.7,1.4c-0.2,0.4-0.5,0.7-0.8,1c-0.3,0.3-0.6,0.4-1,0.4
			c-0.3,0-0.6-0.1-0.8-0.3c-0.3-0.2-0.5-0.4-0.7-0.7c-0.2-0.3-0.4-0.6-0.6-0.9c-0.2-0.3-0.3-0.5-0.4-0.7l-15-36.7
			c-0.2-0.5-0.3-1-0.3-1.5c0-0.5,0.1-0.9,0.3-1.3c0.2-0.4,0.4-0.8,0.7-1.1c0.3-0.3,0.7-0.5,1.1-0.7c0.4-0.2,0.8-0.3,1.3-0.3
			c0.7,0,1.4,0.2,1.9,0.6c0.6,0.4,1,0.9,1.2,1.5l10.8,27c0.2,0.3,0.3,0.5,0.4,0.6c0.1,0,0.2,0,0.3,0c0.1-0.1,0.2-0.2,0.2-0.3
			c0.1-0.1,0.1-0.2,0.1-0.2v0l10.9-26.9c0,0,0-0.1,0-0.1c0,0,0-0.1,0.1-0.1l0-0.1c0.3-0.6,0.7-1,1.2-1.4c0.5-0.4,1.1-0.5,1.8-0.5
			c0.5,0,0.9,0.1,1.3,0.3c0.4,0.2,0.8,0.4,1.1,0.7c0.3,0.3,0.5,0.7,0.7,1.1c0.2,0.4,0.3,0.8,0.3,1.3c0,0.2,0,0.4-0.1,0.6
			C201.3,110.2,201.2,110.4,201.2,110.6L201.2,110.6z"/>
		<path fill="#FFFFFF" d="M232.4,111.7c4.6,4.2,6.8,9.6,6.8,16.4c0,6.8-2.4,12.3-7.1,16.5c-2.4,2.1-4.9,3.6-7.5,4.4
			c-2.4,0.8-5.9,1.2-10.4,1.2h-7.6c-0.4,0-0.8-0.2-1.1-0.5s-0.5-0.7-0.5-1.1v-40.9c0-0.4,0.2-0.8,0.4-1.1c0.3-0.3,0.6-0.5,1-0.5h7.8
			c4.5,0,8,0.4,10.5,1.3C227.7,108.2,230.2,109.7,232.4,111.7z M227.6,139.8c3.3-3,4.9-6.9,4.9-11.7c0-4.8-1.6-8.8-4.8-11.7
			c-2.9-2.7-7.2-4-12.9-4h-1.4c-0.4,0-0.8,0.2-1.1,0.5c-0.3,0.3-0.5,0.7-0.5,1.1v28.3c0,0.4,0.1,0.8,0.4,1.1
			c0.3,0.3,0.7,0.5,1.1,0.5h1.5c3,0,5.5-0.3,7.5-1C224.2,142.3,226,141.2,227.6,139.8z"/>
	</g>
</g>
</svg>
